<svg id="レイヤー_1" data-name="レイヤー 1" xmlns="http://www.w3.org/2000/svg" viewBox="0 0 367.59091 54.88739"><defs><style>.cls-1{fill:#231815;}</style></defs><path class="cls-1" d="M3.66738,15.45754H2.05019L2.29628,3.99661H48.56191L48.808,15.45754H47.29628a18.27367,18.27367,0,0,0-2.21484-6.80273A5.8504,5.8504,0,0,0,42.058,6.0884a22.10621,22.10621,0,0,0-5.51953-.47461H28.87441V39.25833a62.92355,62.92355,0,0,0,.26367,7.34765,3.72842,3.72842,0,0,0,1.42383,2.60156q1.16016.84375,4.35937.84375H37.2416v1.61719H13.476V50.05129h2.46094a8.25614,8.25614,0,0,0,4.23633-.77343A3.587,3.587,0,0,0,21.685,46.86965a51.00086,51.00086,0,0,0,.334-7.61132V5.61379H14.95253a27.8652,27.8652,0,0,0-6.1875.43946,5.559,5.559,0,0,0-2.9707,2.65429A18.78156,18.78156,0,0,0,3.66738,15.45754Z"/><path class="cls-1" d="M57.44863,29.063a11.98733,11.98733,0,0,1,3.88476-5.23828,8.57742,8.57742,0,0,1,5.25586-2.10937,4.741,4.741,0,0,1,3.65625,1.4414,4.35075,4.35075,0,0,1,1.33594,2.95313,2.49422,2.49422,0,0,1-.68555,1.75781A2.194,2.194,0,0,1,69.226,28.606q-1.75854,0-2.67187-2.60156-.63282-1.75782-1.89844-1.75781-1.51171,0-3.62109,2.05664a9.521,9.521,0,0,0-2.707,4.27148,24.348,24.348,0,0,0-.59765,6.082v5.13282q0,4.6062.123,5.80078a2.44318,2.44318,0,0,0,1.002,1.82812,5.6224,5.6224,0,0,0,3.1289.63281h.98438v1.61719h-15.293V50.05129h.73828a5.78526,5.78526,0,0,0,3.00586-.58007,2.324,2.324,0,0,0,1.07227-1.63477,56.45962,56.45962,0,0,0,.17578-6.04687v-8.1211q0-4.64063-.123-5.81836a2.48885,2.48885,0,0,0-1.002-1.82812,5.49994,5.49994,0,0,0-3.12891-.65039h-.73828v-1.582a49.39823,49.39823,0,0,0,8.64844-2.07422A23.383,23.383,0,0,1,57.44863,29.063Z"/><path class="cls-1" d="M100.47988,32.61379H80.40566q-.14062,2.075-.14063,3.09375,0,7.59375,2.37305,11.40821a7.80121,7.80121,0,0,0,7.084,3.81445,9.27478,9.27478,0,0,0,9.07031-5.73047h1.6875A9.82848,9.82848,0,0,1,96.015,50.80715a13.98305,13.98305,0,0,1-14.18554.17579,14.74769,14.74769,0,0,1-5.32617-5.22071,15.34793,15.34793,0,0,1-2.07422-8.1914,16.45512,16.45512,0,0,1,4.00781-11.33789,12.841,12.841,0,0,1,10.01953-4.51758q5.66016,0,8.75391,3.44531A11.77891,11.77891,0,0,1,100.47988,32.61379Zm-6.15235-1.40625a11.27272,11.27272,0,0,0,.10547-1.4414,6.03923,6.03923,0,0,0-6.25781-6.50391q-6.39916,0-7.62891,7.94531Z"/><path class="cls-1" d="M113.13613,21.71536h.94922a19.15282,19.15282,0,0,1,.91406,5.9414,18.40511,18.40511,0,0,1,5.30859-4.46484,12.19234,12.19234,0,0,1,5.80078-1.47656,10.1057,10.1057,0,0,1,5.64258,1.4414A6.48826,6.48826,0,0,1,134.58144,26.69a22.328,22.328,0,0,1,.63281,6.09961v9a57.49243,57.49243,0,0,0,.17578,6.082,2.20931,2.20931,0,0,0,1.10743,1.63476,7.44244,7.44244,0,0,0,3.42773.54492v1.61719H125.19472V50.05129h.668q2.53125,0,3.30469-.73828a2.73511,2.73511,0,0,0,.8789-1.72265q.10548-.98364.10547-5.80078V32.50833a24.59423,24.59423,0,0,0-.334-4.86914,4.57,4.57,0,0,0-1.793-2.584,5.898,5.898,0,0,0-3.709-1.125,8.82243,8.82243,0,0,0-4.9043,1.5293,16.27155,16.27155,0,0,0-4.41211,4.58789V41.78958a52.4231,52.4231,0,0,0,.19336,6.082,2.2602,2.2602,0,0,0,1.125,1.63476,7.552,7.552,0,0,0,3.46289.54492v1.61719H105.226V50.05129a8.04983,8.04983,0,0,0,3.375-.49218,2.16411,2.16411,0,0,0,1.17774-1.49414,45.521,45.521,0,0,0,.22851-6.27539V33.21145a52.51409,52.51409,0,0,0-.19336-6.09961,2.25459,2.25459,0,0,0-1.125-1.61719,7.56007,7.56007,0,0,0-3.46289-.54492V23.33254A45.18015,45.18015,0,0,0,113.13613,21.71536Z"/><path class="cls-1" d="M167.50722,25.93411v-11.25q0-4.60548-.123-5.80078a2.447,2.447,0,0,0-1.002-1.82813,5.62472,5.62472,0,0,0-3.1289-.63281H162.515V4.8052a39.63391,39.63391,0,0,0,9.31641-1.47656h.73828v38.707a58.03551,58.03551,0,0,0,.17578,6.11719A2.15779,2.15779,0,0,0,173.85292,49.77a7.7822,7.7822,0,0,0,3.4629.52735v1.61719a51.03693,51.03693,0,0,0-9.07032.91406,23.06523,23.06523,0,0,1-.42187-5.20313,19.292,19.292,0,0,1-5.36133,3.90235,13.26185,13.26185,0,0,1-5.71289,1.30078,12.58126,12.58126,0,0,1-9.65039-4.5,15.69178,15.69178,0,0,1-4.06055-10.89844q0-7.03125,4.14844-11.373a13.19917,13.19917,0,0,1,9.87891-4.34179A14.55207,14.55207,0,0,1,162.58535,22.77,16.5881,16.5881,0,0,1,167.50722,25.93411Zm0,2.03906a18.1145,18.1145,0,0,0-4.6582-3.00586,11.83033,11.83033,0,0,0-4.69336-1.002,8.41506,8.41506,0,0,0-6.627,3.05859q-2.655,3.05859-2.6543,9.98438,0,7.032,2.72461,10.37109a8.36745,8.36745,0,0,0,6.73242,3.33984,10.06729,10.06729,0,0,0,4.957-1.26562,13.80878,13.80878,0,0,0,4.21875-3.79688Z"/><path class="cls-1" d="M230.65957,52.82864h-1.582L214.558,13.524,201.8666,52.82864h-1.6875l-11.4961-37.125q-1.54761-5.0625-2.23242-6.73242a5.47948,5.47948,0,0,0-1.793-2.46094,7.00688,7.00688,0,0,0-3.67383-.89649V3.99661h17.89454V5.61379q-3.23511.21094-4.14844.93165a2.42678,2.42678,0,0,0-.91406,2.02148,30.21827,30.21827,0,0,0,1.47656,5.94141l8.50781,27.77343L216.2455,3.99661h1.96875l13.99219,38.28515,7.27734-25.3125a32.92846,32.92846,0,0,0,1.44141-6.71484q0-4.64062-4.957-4.64063V3.99661H248.976V5.61379a5.504,5.504,0,0,0-4.28906,2.127q-1.40625,1.91675-3.55078,9.19336Z"/><path class="cls-1" d="M273.933,46.395h1.30078q-.3164,6.01173-5.90625,6.01172a5.398,5.398,0,0,1-3.77929-1.26562,6.33753,6.33753,0,0,1-1.81055-3.76172,36.70453,36.70453,0,0,1-6.416,3.76172,13.19042,13.19042,0,0,1-5.18554,1.26562,7.79937,7.79937,0,0,1-5.02735-1.6875,5.43458,5.43458,0,0,1-2.10937-4.46484q0-3.62035,3.5332-6.32813a43.5505,43.5505,0,0,1,9.75586-5.27343l5.44922-2.21485V31.03176a17.1696,17.1696,0,0,0-.38672-4.32422,4.4359,4.4359,0,0,0-2.0039-2.39062,7.67545,7.67545,0,0,0-4.25391-1.05469q-5.27345,0-5.87109,3.51563-.5625,3.58593-2.95313,3.58593-2.14453,0-2.14453-2.03906,0-2.00391,2.84766-4.30664,2.84764-2.302,8.85937-2.30273a14.08826,14.08826,0,0,1,6.92578,1.40625,7.30318,7.30318,0,0,1,3.25195,3.19922,14.335,14.335,0,0,1,.791,5.48437V43.44192a19.60462,19.60462,0,0,0,.42188,5.23828,1.74092,1.74092,0,0,0,1.82812,1.16016Q273.37051,49.84036,273.933,46.395ZM263.73769,34.09036l-3.832,1.54687q-9.07032,3.69141-9.07031,9.28125a5.29205,5.29205,0,0,0,1.16015,3.56836,3.79233,3.79233,0,0,0,3.02344,1.35352,8.806,8.806,0,0,0,3.832-1.08985,28.01649,28.01649,0,0,0,4.88672-3.26953Z"/><path class="cls-1" d="M295.72988,24.4927h-8.6836V41.895a26.52463,26.52463,0,0,0,.35157,5.39649A3.87508,3.87508,0,0,0,288.892,49.524a4.03829,4.03829,0,0,0,2.44336.84375q2.53125,0,4.39453-2.88281l1.125.668a7.53834,7.53834,0,0,1-3.2168,3.498,8.80416,8.80416,0,0,1-4.30664,1.17774,7.02667,7.02667,0,0,1-4.44727-1.49414,6.24672,6.24672,0,0,1-2.39062-3.498,35.11569,35.11569,0,0,1-.47461-7.03125V24.4927h-4.18359V22.87551a7.29764,7.29764,0,0,0,5.168-2.42578,11.679,11.679,0,0,0,2.918-6.60937h1.125v9.03515h8.6836Z"/><path class="cls-1" d="M325.48769,44.63723h1.54688q-2.39062,8.19214-11.95313,8.19141a14.09789,14.09789,0,0,1-10.35352-4.1836q-4.20117-4.18359-4.20117-11.07421a15.24358,15.24358,0,0,1,4.53516-11.46094,14.89367,14.89367,0,0,1,10.72266-4.39453A14.57858,14.57858,0,0,1,322.64,23.35012q3.12891,1.63477,3.12891,3.99024a2.70345,2.70345,0,0,1-.58008,1.65234,1.96082,1.96082,0,0,1-1.66992.77344q-2.32031,0-2.84766-2.707a5.29482,5.29482,0,0,0-1.30078-2.84766q-.91406-.80859-3.55078-.80859a8.18645,8.18645,0,0,0-7.084,3.26953q-2.373,3.26954-2.37305,9.84375,0,6.78516,2.54883,10.61719a8.639,8.639,0,0,0,7.7168,3.832Q323.58925,50.96536,325.48769,44.63723Z"/><path class="cls-1" d="M340.46425,27.62161a14.86228,14.86228,0,0,1,4.72852-4.42969,11.5039,11.5039,0,0,1,5.748-1.47656,10.83883,10.83883,0,0,1,5.88867,1.47656,6.83035,6.83035,0,0,1,3.041,3.63867,24.91958,24.91958,0,0,1,.70313,7.01367v7.94532a53.427,53.427,0,0,0,.19336,6.15234,2.14707,2.14707,0,0,0,1.14258,1.59961,8.27161,8.27161,0,0,0,3.51562.50976v1.61719H350.5541V50.05129h.668q2.5664,0,3.32226-.73828a2.86452,2.86452,0,0,0,.87891-1.74023q.123-1.002.123-5.7832V33.14114a24.3005,24.3005,0,0,0-.42187-5.3086,4.87277,4.87277,0,0,0-1.98633-2.84765,6.54282,6.54282,0,0,0-3.91992-1.125,8.11187,8.11187,0,0,0-4.92188,1.59961,13.4831,13.4831,0,0,0-3.832,4.79883V41.78958q0,4.85155.15821,5.97656a2.29628,2.29628,0,0,0,1.07226,1.70508,6.74237,6.74237,0,0,0,3.33985.58007v1.61719h-14.625V50.05129h.73828q2.53125,0,3.28711-.7207a2.78924,2.78924,0,0,0,.8789-1.72265q.123-1.002.12305-5.81836V13.10208q0-4.35866-.82617-5.51954-.82617-1.16014-3.95508-1.16015V4.8052A24.16031,24.16031,0,0,0,339.726,3.32864h.73828Z"/></svg>