<svg id="レイヤー_1" data-name="レイヤー 1" xmlns="http://www.w3.org/2000/svg" viewBox="0 0 664.5801 111.38562"><defs><style>.cls-1{fill:#0c1530;}</style></defs><path class="cls-1" d="M81.45759,31.92967q0,1.82154-1.68018,1.82031-1.67945,0-2.37988-3.64013-.282-2.52027-.56006-5.04a24.3743,24.3743,0,0,0-3.21973-8.54q-2.93994-4.62012-9.66015-5.87989a30.34058,30.34058,0,0,0-7-.70019q-6.58229.1875-7.98.28027V94.77879q0,5.05,2.66015,6.30908,1.39746.70167,7.83985.8418,1.68017.13184,1.68017,1.19043,0,1.19091-2.24023,1.18994a12.22187,12.22187,0,0,1-1.96-.14014q-8.40015-.279-11.8999-.27978-4.62012,0-8.68018.21-4.062.20947-10.35986.21-3.22192,0-3.22022-1.12256,0-1.25976,6.02-1.40185,4.33814,0,5.6001-1.82227.69873-1.12207.70019-5.74853V10.23q-13.86034.14136-17.22021,1.3999Q9.07771,14.85179,7.53767,28.85008q-.41969,4.1997-1.96,4.19971-1.68018,0-1.68018-2.93994,0-1.53882.14014-3.08008L4.31745,23.81q.4204-6.438,1.26026-16.93994h6.2998L40.43757,7.29q5.03979.14063,15.68017,0L79.35749,6.8701q.27906,7.842,1.82031,23.23975a4.98215,4.98215,0,0,0,.13965,1.05029A5.70412,5.70412,0,0,1,81.45759,31.92967Z"/><path class="cls-1" d="M123.73786,51.25a7.49172,7.49172,0,0,1-1.96,5.31983,6.5901,6.5901,0,0,1-5.04,2.10009,6.14848,6.14848,0,0,1-4.20019-1.47021,4.71713,4.71713,0,0,1-1.68018-3.71,4.853,4.853,0,0,1,1.26025-3.35987q1.25977-1.39746,1.25977-1.96,0-2.09985-3.07959-2.10009-3.92139,0-6.72021,4.876-3.22192,5.7129-3.22022,21.1753v27.582a1.93587,1.93587,0,0,0,1.19043,2.08886q1.18725.42042,7.21.55811,1.53882.282,1.54,1.11963c0,.6543-.6084.98-1.82031.98H81.31745q-2.24047,0-2.23974-.83984,0-.84009,1.81982-.83985h1.96q4.75782,0,5.6001-1.12646a23.22237,23.22237,0,0,0,.28027-5.20655V57.74217q0-7.73658-2.31006-8.93555-2.31006-1.19457-7.35009-1.33691-1.68018,0-1.68018-.98c0-.65186.46631-.98,1.40039-.98h.98q2.09985,0,4.19971.21a15.20373,15.20373,0,0,1,1.82031.21,27.49147,27.49147,0,0,0,11.48-2.93994l1.81982-.83985,1.12012-.41992a40.99875,40.99875,0,0,1,.56006,6.71973V51.25q4.47876-9.51929,12.59961-9.52a10.48259,10.48259,0,0,1,7.42041,2.73A8.88833,8.88833,0,0,1,123.73786,51.25Z"/><path class="cls-1" d="M180.43757,88.91014q0,1.40038-2.16992,4.96972a30.983,30.983,0,0,1-4.41016,5.81006q-6.02124,6.16187-16.1001,6.16016A27.603,27.603,0,0,1,136.68757,96.75q-8.47192-9.09888-8.47022-22.54,0-13.998,8.0503-23.37988a25.40047,25.40047,0,0,1,20.08984-9.38037q9.939,0,16.66016,5.81006A20.126,20.126,0,0,1,180.1573,62.1699a71.39789,71.39789,0,0,1-11.89991.56006h-9.7998q-.98145,0-16.80029.418a58.409,58.409,0,0,0-.69971,8.78906q0,14.08961,5.39013,21.69141,5.3877,7.60254,15.18995,7.60156,5.59789,0,8.96-2.52,3.35961-2.52026,7.27978-9.66015a1.70764,1.70764,0,0,1,1.54-1.12012C180.06355,87.92967,180.43757,88.25779,180.43757,88.91014ZM168.25739,60.35008q-.561-16.8003-12.04-16.80029-11.34008,0-14.13964,16.80029Z"/><path class="cls-1" d="M251.97614,103.40428q0,1.04663-2.10009,1.04541H224.11628q-1.8208,0-1.81982-.97754a.80327.80327,0,0,1,.77-.83789q.76758-.1377,5.38965-.27979,2.658-.13842,3.08008-.76806.42041-.627.41992-4.53906V70.23094q0-15.22192-1.12011-18.15625-2.38183-6.28345-9.51954-6.28467-7.00268,0-11.76025,6.14453a8.0565,8.0565,0,0,0-1.3999,5.0293v43.57471q0,1.6765,2.98828,1.81591l4.26953.13965q1.42091,0,1.42188.978,0,.97779-1.67969.97754h-25.48q-2.09985,0-2.1001-.85742,0-.8562,2.52-1.10254h3.5q2.09985,0,2.52-.97754l.41992-2.09375v-30.439q0-15.917-.27978-17.59375-.28272-1.67358-3.5-1.67578h-4.06006q-2.80225,0-2.8003-1.0415,0-1.33813,2.93995-1.33838a37.78907,37.78907,0,0,0,9.10009-1.54q4.89918-1.3982,6.86036-3.22021a3.57106,3.57106,0,0,1,1.96-1.12012q.97778,0,.98,2.66016v6.72021q7.27734-9.37793,18.75976-9.38037,10.08033,0,14.56006,7.42041,2.52027,4.1997,2.52,15.96V96.75q0,4.48242.41992,4.8999.84009.84009,4.06006.83985h2.52C251.50788,102.48973,251.97614,102.79637,251.97614,103.40428Z"/><path class="cls-1" d="M319.45612,101.3701q0,.98072-1.96.98H313.296a23.23514,23.23514,0,0,0-11.62012,2.69922,8.69374,8.69374,0,0,1-2.37988,1.08056q-1.25977,0-1.25977-1.68017l.13965-4.33984a19.50955,19.50955,0,0,1-14.2793,6.02,24.23638,24.23638,0,0,1-19.39013-9.06933q-7.63257-9.06959-7.63037-23.13086,0-14.48,7.63037-23.48047,7.6289-8.99708,19.9497-8.99951,9.51857,0,14.28028,6.86035V26.46971q0-10.6377-.9668-13.15967-.83057-2.09985-2.48535-1.96-4.00635.41967-4.832.41992c-1.19922,0-1.7959-.41992-1.7959-1.26025q0-1.25978,1.5293-1.25977l5.00878.14014q4.17042.14063,12.79688-3.92041a2.23454,2.23454,0,0,1,.97363-.27979q1.39161,0,1.3916,3.35987V63.70994q0,33.18018.55957,35.56006.27979.98072,6.58008.98Q319.45466,100.25,319.45612,101.3701ZM298.7364,66.23q0-13.43994-2.94043-17.22021A11.80781,11.80781,0,0,0,286.13581,44.25q-7.56006,0-12.03955,7.83985-4.48242,7.842-4.48,21,0,12.59985,3.91992,21.56a15.46008,15.46008,0,0,0,4.96973,6.23,11.23371,11.23371,0,0,0,6.79,2.4502,12.85058,12.85058,0,0,0,7.83984-2.59033,11.76305,11.76305,0,0,0,4.55078-6.23Q298.73542,90.87108,298.7364,66.23Z"/><path class="cls-1" d="M459.9156,8.06883q0,1.19093-4.75977,1.32129-5.32324.14063-7.07031,3.5-1.752,3.35961-5.39063,14.27978Q436.38874,46.34911,431.484,59.78563q-8.3921,22.96215-15.249,44.38427-.57422,1.81788-1.43457,1.81983c-.47949,0-.93359-.46582-1.36523-1.39112q-.646-1.39086-3.80176-9.74511-3.89795-10.93653-8.49414-22.01319-3.62256-8.69531-7.10059-17.94824-9.75074,23.66456-19.36084,49.42676-.564,1.66992-1.41113,1.6709-.70459,0-1.69043-2.37988Q367.23445,93.2512,339.37409,17.79a34.34712,34.34712,0,0,0-2.94043-6.6499q-.98143-1.32934-4.89746-1.47022-6.72071-.279-6.7207-1.96,0-1.25976,2.24023-1.26025a8.81585,8.81585,0,0,1,1.67969.14014q7.41944.4204,15.96.41992,1.68018,0,5.81055-.27979,4.12793-.279,10.71-.28027h1.54q2.37891,0,2.37988,1.28662,0,1.57178-4.30957,1.71484-8.62207.28564-8.62109,2.28614,0,3.92066,25.72949,72.95068,9.356-23.65137,13.96484-34.84668L378.07722,13.98582q-1.12939-2.93042-2.60547-3.76709-1.47657-.83643-5.416-.97754-3.94042-.13768-3.93945-1.25586,0-1.53515,2.93945-1.53564,2.23828,0,5.46.28027,3.21973.282,11.2002.27979h26.03955q5.17822,0,12.46-.44824a15.08415,15.08415,0,0,1,1.96-.11182q3.36036,0,3.36035,1.47461,0,1.32569-2.37988,1.32568H424.775q-6.29883,0-9.51953,1.67774-1.40186.70239-5.17969,10.07129-1.69629,3.91772-5.65332,13.28906-.82324,2.10644-2.4668,6.32178.97413,2.80224,6.127,15.55322,6.65478,16.2063,10.95019,27.79883,7.875-22.667,18.56543-53.5918,5.65724-16.46192,5.65723-18.292,0-2.67042-4.90039-2.67285-6.86133,0-6.85938-1.54883,0-1.40406,2.79981-1.40674a30.4482,30.4482,0,0,1,3.78027.186,46.74969,46.74969,0,0,0,5.59961.374h11.2002q4.1997,0,4.62011.33056A.936.936,0,0,1,459.9156,8.06883ZM400.69489,9.6699h-4.05957q-5.04053.282-5.03955,1.82862,0,.28271,8.2417,24.34472,3.19922-7.00561,7.5127-18.49951.57714-1.53588,1.73632-4.04687l.28907-1.11573Q409.37556,9.67112,400.69489,9.6699Z"/><path class="cls-1" d="M501.91267,97.8701q0,2.38184-4.94532,4.96973a20.55132,20.55132,0,0,1-9.54,2.58984q-9.61377,0-10.02929-9.93994-5.29248,10.3623-16.43457,10.36035a14.07471,14.07471,0,0,1-9.88965-3.57031,11.86553,11.86553,0,0,1-3.90039-9.16992q0-11.47779,13.73242-18.19971,4.71533-2.23828,16.36719-4.48047v-3.5q0-12.31714-1.25977-16.23975-2.24121-7.14037-10.08008-7.14013a12.60979,12.60979,0,0,0-8.19043,2.66015,8.28657,8.28657,0,0,0-3.29,6.71973c0,.74853.582,1.12012,1.75,1.12012A4.061,4.061,0,0,1,459.3531,55.73a5.76016,5.76016,0,0,1,1.40039,3.77979q0,6.1626-6.16016,6.16015A7.08059,7.08059,0,0,1,449.273,63.5a7.62224,7.62224,0,0,1-2.09961-5.53027,14.89076,14.89076,0,0,1,5.17969-11.33985q5.73926-5.17749,15.96-5.18017,15.39843,0,18.90039,8.40039,1.25976,3.22193,1.25976,12.73975V88.77q0,6.44093.13965,7.56006.69873,5.03979,4.06055,5.04a8.274,8.274,0,0,0,6.43945-2.80029q1.39746-1.53882,2.10059-1.54Q501.91218,97.02977,501.91267,97.8701ZM477.273,83.02977V72.81q-10.34913,2.38184-14.83594,6.23a12.88,12.88,0,0,0-4.48437,10.29,10.64309,10.64309,0,0,0,2.55273,7.34961,8.22546,8.22546,0,0,0,6.41894,2.87012q5.93262,0,9.51954-6.71973Q477.27155,91.29124,477.273,83.02977Z"/><path class="cls-1" d="M539.85114,95.91014q0,1.25976-3.5,4.48a20.54921,20.54921,0,0,1-14.28027,5.46q-7.70069,0-11.62012-3.91162-2.23974-2.231-2.23926-13.1294V47.18553a1.555,1.555,0,0,0-1.54-1.53565h-5.32032q-3.08056,0-3.08008-.98,0-.97777,1.5293-1.12011,10.84717-.991,16.9707-10.76465a2.44665,2.44665,0,0,1,2.08692-1.27539.86462.86462,0,0,1,.97363.98v2.93994q0,5.88061.55957,7.56006a21.67223,21.67223,0,0,0,4.2002.28027q7.69775,0,10.21972-.70019a4.187,4.187,0,0,1,.98047-.14014c.74512,0,1.12012.40283,1.12012,1.20752q0,2.01489-11.34082,2.01269h-5.73926V71.54979q0,19.60254.97949,24.57031.97852,4.97094,6.44043,4.96973,4.62012,0,10.35938-5.17969a1.60279,1.60279,0,0,1,1.26074-.7002C539.523,95.20994,539.85114,95.44383,539.85114,95.91014Z"/><path class="cls-1" d="M592.49079,55.8701q0,6.44091-6.2998,6.43994-6.1626,0-6.16016-5.88037A12.65345,12.65345,0,0,1,581.43122,51.81a4.94564,4.94564,0,0,0,.41992-1.96A5.36164,5.36164,0,0,0,578.981,45.23a13.24376,13.24376,0,0,0-7.21-1.81982,14.5977,14.5977,0,0,0-13.0205,7.27978q-4.61865,7.281-4.61914,20.43994,0,14.84108,4.75976,22.89014,4.75782,8.05226,13.43945,8.04981a16.504,16.504,0,0,0,10.5-3.64014,33.41942,33.41942,0,0,0,5.46-6.43994,1.93546,1.93546,0,0,1,1.26074-.69971q1.39746,0,1.39941,1.12012,0,1.8208-4.89941,6.85986a21.31414,21.31414,0,0,1-16.10059,6.58008,26.38329,26.38329,0,0,1-20.37012-8.82031q-8.05224-8.81983-8.0498-22.25977,0-14.41771,8.54-23.87012a27.65445,27.65445,0,0,1,21.41992-9.45019A25.3754,25.3754,0,0,1,586.12067,45.79Q592.48982,50.13108,592.49079,55.8701Z"/><path class="cls-1" d="M660.95075,103.33006q0,1.12207-2.37988,1.11963H633.0904q-1.82081,0-1.81934-1.11768,0-.97777,5.31934-.97754,3.21972,0,3.71-.76806.48926-.76758.49024-5.23682V67.99754q0-12.70825-1.12012-15.78271-2.38184-6.42481-10.5-6.42481-6.71923,0-10.91992,6.0044-1.4004,1.95556-1.39942,8.66064V96.06981a33.16258,33.16258,0,0,0,.13965,4.32861q.1377,1.3982,1.12012,1.60791a52.71382,52.71382,0,0,0,6.01953.34814q1.68018,0,1.68066,1.11768c0,.65186-.46875.97754-1.40039.97754h-12.46q-11.62206-.14062-12.87988,0h-1.40039c-1.02832,0-1.54-.28174-1.54-.84863,0-.64746.51172-.9712,1.54-.9712h2.10058l2.09961-.14013q3.21973.14136,3.36036-1.96192V37.56932q0-22.43409-.7002-24.25733-.84083-1.40112-6.86035-1.542-3.35889,0-3.35938-1.0415c0-.59473.23145-.94043.69922-1.041q.7002-.14794,4.76074-.29736a32.2782,32.2782,0,0,0,13.71973-3.36035,13.79941,13.79941,0,0,1,1.96-.69971q.97853,1.67945.98047,10.77979V50.41014A19.35116,19.35116,0,0,1,633.231,41.44969q11.19873,0,15.96,6.16016,2.37889,3.08129,2.93945,8.68017a91.1663,91.1663,0,0,1,.28027,9.37988v35.27979q.1377,1.40112,7.28028,1.40039Q660.95075,102.63207,660.95075,103.33006Z"/></svg>